<svg width="49" height="196" viewBox="0 0 49 196" fill="none" xmlns="http://www.w3.org/2000/svg">
<path d="M38 184.82V168.32H44V191.72H4.4V184.82H38ZM44 128.836V136.336L32.48 140.836V155.776L44 159.856V167.056L4.4 151.696V145.756L44 128.836ZM27.08 153.856V142.996L12.5 148.696L27.08 153.856ZM10.4 101.291L10.4 112.751H44V119.651H10.4V131.111H4.4L4.4 101.291H10.4ZM26 75.8473V87.8473H38V70.6273H44V94.7473H4.4V71.8273H10.4V87.8473H20V75.8473H26ZM13.94 57.9495C14.78 57.9495 15.5 57.7695 16.1 57.4095C16.7 57.0095 17.22 56.4695 17.66 55.7895C18.1 55.1095 18.52 54.3095 18.92 53.3895C19.28 52.4295 19.66 51.3695 20.06 50.2095C20.58 48.7695 21.18 47.3495 21.86 45.9495C22.5 44.5095 23.32 43.2295 24.32 42.1095C25.28 40.9495 26.48 40.0095 27.92 39.2895C29.36 38.5695 31.1 38.2095 33.14 38.2095C35.3 38.2095 37.12 38.6095 38.6 39.4095C40.08 40.1695 41.28 41.2095 42.2 42.5295C43.08 43.8495 43.72 45.3695 44.12 47.0895C44.52 48.8095 44.72 50.5895 44.72 52.4295C44.72 55.0695 44.4 57.5495 43.76 59.8695C43.12 62.1495 42.34 64.1095 41.42 65.7495L34.94 63.9495C36.1 62.4295 37.06 60.7495 37.82 58.9095C38.58 57.0295 38.96 54.8895 38.96 52.4895C38.96 49.9295 38.52 48.0695 37.64 46.9095C36.72 45.7495 35.5 45.1695 33.98 45.1695C32.82 45.1695 31.84 45.4495 31.04 46.0095C30.2 46.5695 29.5 47.2695 28.94 48.1095C28.34 48.9495 27.86 49.8495 27.5 50.8095C27.14 51.7295 26.84 52.5495 26.6 53.2695C26.2 54.5495 25.72 55.8495 25.16 57.1695C24.6 58.4895 23.88 59.7095 23 60.8295C22.08 61.9495 20.94 62.8695 19.58 63.5895C18.22 64.2695 16.52 64.6095 14.48 64.6095C12.56 64.6095 10.94 64.2895 9.62 63.6495C8.3 62.9695 7.24 62.0695 6.44 60.9495C5.6 59.7895 5 58.4495 4.64 56.9295C4.28 55.3695 4.1 53.6895 4.1 51.8895C4.1 49.6895 4.32 47.5695 4.76 45.5295C5.2 43.4495 5.74 41.7095 6.38 40.3095L12.74 41.9295C12.26 42.6495 11.84 43.4295 11.48 44.2695C11.12 45.1095 10.82 45.9895 10.58 46.9095C10.34 47.7895 10.16 48.6895 10.04 49.6095C9.88 50.4895 9.8 51.3295 9.8 52.1295C9.8 53.9295 10.14 55.3495 10.82 56.3895C11.5 57.4295 12.54 57.9495 13.94 57.9495ZM10.4 4.67V16.13H44L44 23.03H10.4V34.49H4.4L4.4 4.67H10.4Z" fill="#810246" fill-opacity="0.15"/>
<path d="M38 184.82V188.82H42V184.82H38ZM38 168.32V164.32H34V168.32H38ZM44 168.32H48V164.32H44V168.32ZM44 191.72V195.72H48V191.72H44ZM4.4 191.72H0.399999V195.72H4.4V191.72ZM4.4 184.82L4.4 180.82H0.399999V184.82H4.4ZM42 184.82V168.32H34V184.82H42ZM38 172.32H44V164.32H38V172.32ZM40 168.32V191.72H48V168.32H40ZM44 187.72H4.4V195.72H44V187.72ZM8.4 191.72V184.82H0.399999L0.399999 191.72H8.4ZM4.4 188.82H38V180.82H4.4L4.4 188.82ZM44 128.836H48V122.777L42.4284 125.157L44 128.836ZM44 136.336L45.4554 140.062L48 139.068L48 136.336H44ZM32.48 140.836L31.0246 137.11L28.48 138.104L28.48 140.836H32.48ZM32.48 155.776H28.48V158.603L31.1446 159.546L32.48 155.776ZM44 159.856H48V157.029L45.3354 156.085L44 159.856ZM44 167.056L42.5535 170.785L48 172.898V167.056H44ZM4.4 151.696H0.399999V154.435L2.95349 155.425L4.4 151.696ZM4.4 145.756L2.82836 142.077L0.399999 143.115V145.756H4.4ZM27.08 153.856L25.7455 157.627L31.08 159.515V153.856H27.08ZM27.08 142.996H31.08L31.08 137.137L25.6236 139.27L27.08 142.996ZM12.5 148.696L11.0436 144.97L1.03747 148.882L11.1655 152.467L12.5 148.696ZM40 128.836V136.336H48V128.836H40ZM42.5446 132.61L31.0246 137.11L33.9354 144.562L45.4554 140.062L42.5446 132.61ZM28.48 140.836V155.776H36.48V140.836H28.48ZM31.1446 159.546L42.6646 163.626L45.3354 156.085L33.8154 152.005L31.1446 159.546ZM40 159.856V167.056H48V159.856H40ZM45.4465 163.326L5.84651 147.966L2.95349 155.425L42.5535 170.785L45.4465 163.326ZM8.4 151.696V145.756H0.399999L0.399999 151.696H8.4ZM5.97164 149.434L45.5716 132.514L42.4284 125.157L2.82836 142.077L5.97164 149.434ZM31.08 153.856V142.996H23.08V153.856H31.08ZM25.6236 139.27L11.0436 144.97L13.9564 152.421L28.5364 146.721L25.6236 139.27ZM11.1655 152.467L25.7455 157.627L28.4145 150.085L13.8345 144.925L11.1655 152.467ZM10.4 101.291H14.4V97.2911H10.4V101.291ZM10.4 112.751H6.4V116.751H10.4V112.751ZM44 112.751H48V108.751H44V112.751ZM44 119.651V123.651H48V119.651H44ZM10.4 119.651V115.651H6.4V119.651H10.4ZM10.4 131.111V135.111H14.4V131.111H10.4ZM4.4 131.111H0.399999L0.399999 135.111H4.4V131.111ZM4.4 101.291V97.2911H0.399999V101.291H4.4ZM6.4 101.291V112.751H14.4L14.4 101.291H6.4ZM10.4 116.751H44V108.751H10.4L10.4 116.751ZM40 112.751V119.651H48V112.751H40ZM44 115.651H10.4V123.651H44V115.651ZM6.4 119.651L6.4 131.111H14.4V119.651H6.4ZM10.4 127.111H4.4V135.111H10.4V127.111ZM8.4 131.111L8.4 101.291H0.399999L0.399999 131.111H8.4ZM4.4 105.291H10.4V97.2911H4.4V105.291ZM26 75.8473H30V71.8473H26V75.8473ZM26 87.8473H22V91.8473H26V87.8473ZM38 87.8473V91.8473H42V87.8473H38ZM38 70.6273V66.6273H34V70.6273H38ZM44 70.6273H48V66.6273H44V70.6273ZM44 94.7473V98.7473H48V94.7473H44ZM4.4 94.7473H0.399999V98.7473H4.4L4.4 94.7473ZM4.4 71.8273V67.8273H0.399999V71.8273H4.4ZM10.4 71.8273H14.4V67.8273H10.4V71.8273ZM10.4 87.8473H6.4V91.8473H10.4V87.8473ZM20 87.8473V91.8473H24V87.8473H20ZM20 75.8473V71.8473H16V75.8473H20ZM22 75.8473V87.8473H30V75.8473H22ZM26 91.8473H38V83.8473H26V91.8473ZM42 87.8473V70.6273H34V87.8473H42ZM38 74.6273H44V66.6273H38V74.6273ZM40 70.6273V94.7473H48V70.6273H40ZM44 90.7473H4.4L4.4 98.7473H44V90.7473ZM8.4 94.7473V71.8273H0.399999L0.399999 94.7473H8.4ZM4.4 75.8273H10.4V67.8273H4.4V75.8273ZM6.4 71.8273V87.8473H14.4V71.8273H6.4ZM10.4 91.8473H20V83.8473H10.4V91.8473ZM24 87.8473V75.8473H16V87.8473H24ZM20 79.8473H26V71.8473H20V79.8473ZM16.1 57.4095L18.158 60.8395L18.2396 60.7905L18.3188 60.7377L16.1 57.4095ZM17.66 55.7895L21.0183 57.9625H21.0183L17.66 55.7895ZM18.92 53.3895L22.5883 54.9844L22.6292 54.8902L22.6653 54.794L18.92 53.3895ZM20.06 50.2095L16.2978 48.851L16.2879 48.8782L16.2785 48.9056L20.06 50.2095ZM21.86 45.9495L25.458 47.6971L25.4877 47.6361L25.5152 47.5741L21.86 45.9495ZM24.32 42.1095L27.3037 44.7736L27.3537 44.7176L27.4016 44.6598L24.32 42.1095ZM27.92 39.2895L29.7089 42.8672H29.7089L27.92 39.2895ZM38.6 39.4095L36.6979 42.9284L36.7351 42.9485L36.7728 42.9678L38.6 39.4095ZM42.2 42.5295L45.5282 40.3107L45.5052 40.2763L45.4816 40.2424L42.2 42.5295ZM44.12 47.0895L48.016 46.1835L44.12 47.0895ZM43.76 59.8695L47.6112 60.9506L47.6136 60.9419L47.616 60.9332L43.76 59.8695ZM41.42 65.7495L40.3494 69.6036L43.3732 70.4435L44.9086 67.7065L41.42 65.7495ZM34.94 63.9495L31.7602 61.5228L28.1743 66.2216L33.8694 67.8036L34.94 63.9495ZM37.82 58.9095L41.517 60.4366L41.5228 60.4227L41.5284 60.4087L37.82 58.9095ZM37.64 46.9095L40.8268 44.492L40.8007 44.4577L40.774 44.424L37.64 46.9095ZM31.04 46.0095L33.2588 49.3377L33.2966 49.3125L33.3339 49.2865L31.04 46.0095ZM28.94 48.1095L32.1949 50.4345L32.2324 50.382L32.2682 50.3283L28.94 48.1095ZM27.5 50.8095L31.225 52.2671L31.2353 52.2406L31.2453 52.214L27.5 50.8095ZM26.6 53.2695L22.8053 52.0046L22.7933 52.0404L22.7821 52.0764L26.6 53.2695ZM25.16 57.1695L28.8423 58.7317L25.16 57.1695ZM23 60.8295L26.0909 63.3685L26.1185 63.3349L26.1453 63.3008L23 60.8295ZM19.58 63.5895L21.3689 67.1672L21.4104 67.1464L21.4516 67.1247L19.58 63.5895ZM9.62 63.6495L7.78817 67.2054L7.83128 67.2276L7.8749 67.2488L9.62 63.6495ZM6.44 60.9495L9.69493 58.6246L9.68738 58.614L9.67977 58.6035L6.44 60.9495ZM4.64 56.9295L0.742434 57.829L0.745024 57.8402L0.747678 57.8514L4.64 56.9295ZM4.76 45.5295L8.67008 46.3729L8.67175 46.3651L8.6734 46.3574L4.76 45.5295ZM6.38 40.3095L7.36734 36.4333L4.13072 35.6089L2.7421 38.6465L6.38 40.3095ZM12.74 41.9295L16.0682 44.1483L19.2019 39.4478L13.7273 38.0533L12.74 41.9295ZM11.48 44.2695L7.80342 42.6938L7.80341 42.6939L11.48 44.2695ZM10.58 46.9095L14.4391 47.962L14.4449 47.9406L14.4505 47.9192L10.58 46.9095ZM10.04 49.6095L13.9755 50.3251L13.9934 50.2264L14.0064 50.1269L10.04 49.6095ZM10.82 56.3895L14.1679 54.2005L10.82 56.3895ZM13.94 61.9495C15.359 61.9495 16.8221 61.6411 18.158 60.8395L14.042 53.9796C14.0693 53.9632 14.0938 53.9514 14.113 53.9436C14.132 53.9358 14.1419 53.9335 14.1399 53.934C14.1356 53.935 14.0751 53.9495 13.94 53.9495V61.9495ZM18.3188 60.7377C19.4264 59.9993 20.3179 59.0449 21.0183 57.9625L14.3017 53.6165C14.122 53.8942 13.9736 54.0197 13.8812 54.0813L18.3188 60.7377ZM21.0183 57.9625C21.6014 57.0614 22.1207 56.06 22.5883 54.9844L15.2517 51.7946C14.9193 52.5591 14.5986 53.1577 14.3017 53.6165L21.0183 57.9625ZM22.6653 54.794C23.04 53.795 23.4321 52.7009 23.8415 51.5135L16.2785 48.9056C15.8879 50.0382 15.52 51.0641 15.1747 51.985L22.6653 54.794ZM23.8222 51.5681C24.2936 50.2628 24.8386 48.9725 25.458 47.6971L18.262 44.2019C17.5214 45.7265 16.8664 47.2763 16.2978 48.851L23.8222 51.5681ZM25.5152 47.5741C25.9951 46.4944 26.5936 45.569 27.3037 44.7736L21.3362 39.4455C20.0464 40.8901 19.0049 42.5246 18.2048 44.325L25.5152 47.5741ZM27.4016 44.6598C27.9827 43.9576 28.7315 43.3559 29.7089 42.8672L26.1311 35.7118C24.2285 36.6632 22.5773 37.9415 21.2384 39.5593L27.4016 44.6598ZM29.7089 42.8672C30.4652 42.4891 31.5597 42.2095 33.14 42.2095V34.2095C30.6403 34.2095 28.2548 34.65 26.1311 35.7118L29.7089 42.8672ZM33.14 42.2095C34.8195 42.2095 35.9448 42.5213 36.6979 42.9284L40.5021 35.8907C38.2952 34.6978 35.7805 34.2095 33.14 34.2095V42.2095ZM36.7728 42.9678C37.692 43.4398 38.3851 44.0515 38.9184 44.8167L45.4816 40.2424C44.1749 38.3676 42.468 36.8993 40.4272 35.8513L36.7728 42.9678ZM38.8718 44.7483C39.4567 45.6257 39.9206 46.691 40.224 47.9956L48.016 46.1835C47.5194 44.0481 46.7033 42.0733 45.5282 40.3107L38.8718 44.7483ZM40.224 47.9956C40.552 49.4063 40.72 50.8817 40.72 52.4295H48.72C48.72 50.2973 48.488 48.2128 48.016 46.1835L40.224 47.9956ZM40.72 52.4295C40.72 54.7446 40.4397 56.864 39.904 58.8058L47.616 60.9332C48.3603 58.235 48.72 55.3945 48.72 52.4295H40.72ZM39.9088 58.7885C39.3335 60.8381 38.6623 62.4896 37.9314 63.7925L44.9086 67.7065C46.0177 65.7295 46.9065 63.461 47.6112 60.9506L39.9088 58.7885ZM42.4906 61.8955L36.0106 60.0955L33.8694 67.8036L40.3494 69.6036L42.4906 61.8955ZM38.1198 66.3762C39.4991 64.5689 40.6299 62.5844 41.517 60.4366L34.123 57.3825C33.4901 58.9147 32.7009 60.2902 31.7602 61.5228L38.1198 66.3762ZM41.5284 60.4087C42.5129 57.9734 42.96 55.3108 42.96 52.4895H34.96C34.96 54.4683 34.6471 56.0856 34.1116 57.4104L41.5284 60.4087ZM42.96 52.4895C42.96 49.6457 42.5046 46.7037 40.8268 44.492L34.4532 49.3271C34.5354 49.4354 34.96 50.2133 34.96 52.4895H42.96ZM40.774 44.424C39.072 42.278 36.6832 41.1695 33.98 41.1695V49.1695C34.2207 49.1695 34.3079 49.2124 34.3176 49.2171C34.3241 49.2202 34.3888 49.2474 34.506 49.3951L40.774 44.424ZM33.98 41.1695C32.1571 41.1695 30.3371 41.6189 28.7462 42.7326L33.3339 49.2865C33.3429 49.2801 33.4829 49.1695 33.98 49.1695V41.1695ZM28.8212 42.6813C27.5418 43.5343 26.4647 44.6113 25.6118 45.8907L32.2682 50.3283C32.5353 49.9277 32.8582 49.6048 33.2588 49.3377L28.8212 42.6813ZM25.6851 45.7846C24.8835 46.9067 24.2381 48.1159 23.7547 49.405L31.2453 52.214C31.4819 51.5832 31.7965 50.9923 32.1949 50.4345L25.6851 45.7846ZM23.775 49.3519C23.3971 50.3178 23.0722 51.2039 22.8053 52.0046L30.3947 54.5344C30.6078 53.8951 30.8829 53.1413 31.225 52.2671L23.775 49.3519ZM22.7821 52.0764C22.4238 53.223 21.9899 54.3998 21.4777 55.6073L28.8423 58.7317C29.4501 57.2992 29.9762 55.8761 30.4179 54.4626L22.7821 52.0764ZM21.4777 55.6073C21.0548 56.6041 20.5149 57.5181 19.8547 58.3582L26.1453 63.3008C27.2451 61.901 28.1452 60.375 28.8423 58.7317L21.4777 55.6073ZM19.9091 58.2906C19.346 58.9761 18.6293 59.5669 17.7084 60.0544L21.4516 67.1247C23.2507 66.1722 24.814 64.9229 26.0909 63.3685L19.9091 58.2906ZM17.7911 60.0118C17.143 60.3359 16.1014 60.6095 14.48 60.6095V68.6095C16.9386 68.6095 19.297 68.2032 21.3689 67.1672L17.7911 60.0118ZM14.48 60.6095C12.9853 60.6095 12.0001 60.3582 11.3651 60.0503L7.8749 67.2488C9.87991 68.2209 12.1347 68.6095 14.48 68.6095V60.6095ZM11.4518 60.0936C10.6517 59.6815 10.0965 59.1868 9.69493 58.6246L3.18507 63.2745C4.38351 64.9523 5.94828 66.2576 7.78817 67.2054L11.4518 60.0936ZM9.67977 58.6035C9.17605 57.9079 8.78189 57.0614 8.53232 56.0077L0.747678 57.8514C1.21811 59.8377 2.02395 61.6712 3.20023 63.2956L9.67977 58.6035ZM8.53756 56.0301C8.25344 54.7989 8.1 53.4236 8.1 51.8895H0.0999985C0.0999985 53.9554 0.306556 55.9402 0.742434 57.829L8.53756 56.0301ZM8.1 51.8895C8.1 49.9577 8.293 48.1212 8.67008 46.3729L0.849913 44.6862C0.347001 47.0179 0.0999985 49.4213 0.0999985 51.8895H8.1ZM8.6734 46.3574C9.07377 44.4647 9.53648 43.0257 10.0179 41.9726L2.7421 38.6465C1.94352 40.3934 1.32623 42.4344 0.846599 44.7017L8.6734 46.3574ZM5.39266 44.1858L11.7527 45.8058L13.7273 38.0533L7.36734 36.4333L5.39266 44.1858ZM9.4118 39.7107C8.78893 40.645 8.2543 41.6418 7.80342 42.6938L15.1566 45.8452C15.4257 45.2173 15.7311 44.654 16.0682 44.1483L9.4118 39.7107ZM7.80341 42.6939C7.36165 43.7246 6.99792 44.7944 6.70953 45.8998L14.4505 47.9192C14.6421 47.1847 14.8783 46.4944 15.1566 45.8452L7.80341 42.6939ZM6.72094 45.8571C6.43221 46.9158 6.21675 47.9947 6.0736 49.0922L14.0064 50.1269C14.1032 49.3844 14.2478 48.6633 14.4391 47.962L6.72094 45.8571ZM6.10452 48.894C5.90654 49.9829 5.8 51.0634 5.8 52.1295H13.8C13.8 51.5957 13.8535 50.9962 13.9755 50.3251L6.10452 48.894ZM5.8 52.1295C5.8 54.376 6.21583 56.6572 7.47212 58.5785L14.1679 54.2005C14.0642 54.0419 13.8 53.483 13.8 52.1295H5.8ZM7.47212 58.5785C8.99464 60.9071 11.391 61.9495 13.94 61.9495V53.9495C13.7357 53.9495 13.7613 53.913 13.8989 53.9818C13.9645 54.0146 14.0293 54.0589 14.0848 54.1092C14.139 54.1584 14.1645 54.1954 14.1679 54.2005L7.47212 58.5785ZM10.4 4.67H14.4V0.669998H10.4V4.67ZM10.4 16.13H6.4V20.13H10.4V16.13ZM44 16.13H48V12.13H44V16.13ZM44 23.03V27.03H48V23.03H44ZM10.4 23.03V19.03H6.4V23.03H10.4ZM10.4 34.49V38.49H14.4V34.49H10.4ZM4.4 34.49H0.399999V38.49H4.4L4.4 34.49ZM4.4 4.67V0.669998H0.399999L0.399999 4.67H4.4ZM6.4 4.67L6.4 16.13H14.4V4.67H6.4ZM10.4 20.13H44V12.13H10.4V20.13ZM40 16.13L40 23.03H48L48 16.13H40ZM44 19.03H10.4V27.03H44L44 19.03ZM6.4 23.03V34.49H14.4V23.03H6.4ZM10.4 30.49H4.4L4.4 38.49H10.4V30.49ZM8.4 34.49L8.4 4.67H0.399999L0.399999 34.49H8.4ZM4.4 8.67H10.4V0.669998H4.4L4.4 8.67Z" fill="#810246" fill-opacity="0.15"/>
</svg>
