<svg width="25" height="57" viewBox="0 0 25 57" fill="none" xmlns="http://www.w3.org/2000/svg">
<path d="M20.15 53H12.1V18.98L6.43 21.5L4.89 14.5L20.15 6.8V53Z" fill="#810246" fill-opacity="0.15"/>
<path d="M20.15 53V57H24.15V53H20.15ZM12.1 53H8.1V57H12.1V53ZM12.1 18.98H16.1V12.8249L10.4754 15.3248L12.1 18.98ZM6.43 21.5L2.52342 22.3594L3.57637 27.1455L8.05455 25.1552L6.43 21.5ZM4.89 14.5L3.08805 10.9289L0.316376 12.3274L0.983422 15.3594L4.89 14.5ZM20.15 6.8H24.15V0.301278L18.3481 3.22887L20.15 6.8ZM20.15 49H12.1V57H20.15V49ZM16.1 53V18.98H8.1V53H16.1ZM10.4754 15.3248L4.80545 17.8448L8.05455 25.1552L13.7246 22.6352L10.4754 15.3248ZM10.3366 20.6406L8.79658 13.6406L0.983422 15.3594L2.52342 22.3594L10.3366 20.6406ZM6.69195 18.0711L21.9519 10.3711L18.3481 3.22887L3.08805 10.9289L6.69195 18.0711ZM16.15 6.8V53H24.15V6.8H16.15Z" fill="#810246" fill-opacity="0.15"/>
</svg>
