<svg width="38" height="55" viewBox="0 0 38 55" fill="none" xmlns="http://www.w3.org/2000/svg">
<path d="M5.5 8.09C6.38667 7.62333 7.39 7.18 8.51 6.76C9.67667 6.29333 10.8667 5.89666 12.08 5.57C13.34 5.19667 14.6 4.91667 15.86 4.73C17.12 4.54333 18.3567 4.45 19.57 4.45C21.53 4.45 23.35 4.73 25.03 5.29C26.71 5.80333 28.1333 6.57333 29.3 7.6C30.5133 8.58 31.4467 9.79333 32.1 11.24C32.8 12.64 33.15 14.2033 33.15 15.93C33.15 18.31 32.5433 20.69 31.33 23.07C30.1633 25.4033 28.67 27.76 26.85 30.14C25.0767 32.4733 23.1167 34.8067 20.97 37.14C18.8233 39.4267 16.8167 41.7133 14.95 44H33.64V51H5.29V44C7.11 41.5267 9.16333 39.1 11.45 36.72C13.7833 34.2933 15.9533 31.9367 17.96 29.65C20.0133 27.3633 21.74 25.1233 23.14 22.93C24.54 20.7367 25.24 18.59 25.24 16.49C25.24 14.4833 24.5867 13.06 23.28 12.22C21.9733 11.38 20.27 10.96 18.17 10.96C16.1633 10.96 14.18 11.2867 12.22 11.94C10.3067 12.5467 8.60333 13.27 7.11 14.11L5.5 8.09Z" fill="#810246" fill-opacity="0.15"/>
<path d="M5.5 8.09L3.63702 4.55032L0.810605 6.03791L1.63581 9.12344L5.5 8.09ZM8.51 6.76L9.91449 10.5053L9.9552 10.4901L9.99556 10.4739L8.51 6.76ZM12.08 5.57L13.1199 9.43246L13.1683 9.41943L13.2163 9.40519L12.08 5.57ZM15.86 4.73L16.4462 8.68681L15.86 4.73ZM25.03 5.29L23.7651 9.08473L23.8129 9.10067L23.8611 9.1154L25.03 5.29ZM29.3 7.6L26.6575 10.6029L26.7209 10.6587L26.7867 10.7118L29.3 7.6ZM32.1 11.24L28.4545 12.8863L28.487 12.9583L28.5223 13.0289L32.1 11.24ZM31.33 23.07L27.7664 21.2533L27.7593 21.2672L27.7523 21.2811L31.33 23.07ZM26.85 30.14L23.6726 27.7102L23.6654 27.7197L26.85 30.14ZM20.97 37.14L23.8863 39.8777L23.9001 39.8631L23.9137 39.8482L20.97 37.14ZM14.95 44L11.8514 41.4705L6.52115 48H14.95V44ZM33.64 44H37.64V40H33.64V44ZM33.64 51V55H37.64V51H33.64ZM5.29 51H1.29V55H5.29V51ZM5.29 44L2.06825 41.6293L1.29 42.6869V44H5.29ZM11.45 36.72L8.56667 33.9476L8.56558 33.9487L11.45 36.72ZM17.96 29.65L14.9838 26.9775L14.9686 26.9945L14.9535 27.0116L17.96 29.65ZM23.14 22.93L19.7683 20.7779L23.14 22.93ZM12.22 11.94L13.429 15.7529L13.457 15.744L13.4849 15.7347L12.22 11.94ZM7.11 14.11L3.24581 15.1434L4.57776 20.1238L9.07105 17.5963L7.11 14.11ZM7.36298 11.6297C8.07615 11.2543 8.92244 10.8773 9.91449 10.5053L7.10551 3.01468C5.85756 3.48266 4.69718 3.99234 3.63702 4.55032L7.36298 11.6297ZM9.99556 10.4739C11.0167 10.0654 12.0579 9.71838 13.1199 9.43246L11.0401 1.70753C9.67543 2.07495 8.33662 2.52122 7.02444 3.04609L9.99556 10.4739ZM13.2163 9.40519C14.3017 9.08359 15.378 8.84507 16.4462 8.68681L15.2738 0.773186C13.822 0.988267 12.3783 1.30974 10.9437 1.7348L13.2163 9.40519ZM16.4462 8.68681C17.5217 8.52748 18.5623 8.45 19.57 8.45V0.449999C18.151 0.449999 16.7183 0.559186 15.2738 0.773186L16.4462 8.68681ZM19.57 8.45C21.1456 8.45 22.5341 8.67439 23.7651 9.08473L26.2949 1.49526C24.1659 0.78561 21.9144 0.449999 19.57 0.449999V8.45ZM23.8611 9.1154C25.068 9.48417 25.9704 9.9982 26.6575 10.6029L31.9425 4.59715C30.2963 3.14847 28.352 2.12249 26.1989 1.46459L23.8611 9.1154ZM26.7867 10.7118C27.5043 11.2914 28.054 11.9995 28.4545 12.8863L35.7455 9.59365C34.8393 7.58718 33.5224 5.8686 31.8133 4.48823L26.7867 10.7118ZM28.5223 13.0289C28.9169 13.8181 29.15 14.7593 29.15 15.93H37.15C37.15 13.6473 36.6831 11.4619 35.6777 9.45114L28.5223 13.0289ZM29.15 15.93C29.15 17.6046 28.7284 19.3662 27.7664 21.2533L34.8936 24.8867C36.3583 22.0138 37.15 19.0153 37.15 15.93H29.15ZM27.7523 21.2811C26.7137 23.3583 25.3613 25.5019 23.6726 27.7102L30.0274 32.5698C31.9787 30.0181 33.613 27.4483 34.9077 24.8589L27.7523 21.2811ZM23.6654 27.7197C21.9736 29.9456 20.095 32.1832 18.0263 34.4318L23.9137 39.8482C26.1384 37.4301 28.1797 35.001 30.0346 32.5603L23.6654 27.7197ZM18.0537 34.4023C15.8478 36.7521 13.7799 39.1081 11.8514 41.4705L18.0486 46.5295C19.8535 44.3186 21.7989 42.1013 23.8863 39.8777L18.0537 34.4023ZM14.95 48H33.64V40H14.95V48ZM29.64 44V51H37.64V44H29.64ZM33.64 47H5.29V55H33.64V47ZM9.29 51V44H1.29V51H9.29ZM8.51175 46.3707C10.2208 44.0481 12.1599 41.7546 14.3344 39.4913L8.56558 33.9487C6.16676 36.4454 3.99918 39.0052 2.06825 41.6293L8.51175 46.3707ZM14.3333 39.4924C16.7044 37.0266 18.9159 34.6251 20.9665 32.2884L14.9535 27.0116C12.9908 29.2482 10.8623 31.5601 8.56667 33.9476L14.3333 39.4924ZM20.9362 32.3225C23.11 29.9017 24.9755 27.4888 26.5117 25.0821L19.7683 20.7779C18.5045 22.7578 16.9167 24.825 14.9838 26.9775L20.9362 32.3225ZM26.5117 25.0821C28.2239 22.3997 29.24 19.5165 29.24 16.49H21.24C21.24 17.6635 20.8561 19.0736 19.7683 20.7779L26.5117 25.0821ZM29.24 16.49C29.24 13.5705 28.2265 10.6447 25.443 8.85529L21.117 15.5847C21.1347 15.5961 21.1279 15.5942 21.1137 15.5779C21.0997 15.5618 21.1019 15.5584 21.1147 15.5862C21.1435 15.6489 21.24 15.9065 21.24 16.49H29.24ZM25.443 8.85529C23.3013 7.47842 20.7747 6.96 18.17 6.96V14.96C19.7653 14.96 20.6454 15.2816 21.117 15.5847L25.443 8.85529ZM18.17 6.96C15.7207 6.96 13.3107 7.36005 10.9551 8.14527L13.4849 15.7347C15.0493 15.2133 16.6059 14.96 18.17 14.96V6.96ZM11.011 8.12708C8.8797 8.80286 6.91765 9.62881 5.14895 10.6237L9.07105 17.5963C10.289 16.9112 11.7336 16.2905 13.429 15.7529L11.011 8.12708ZM10.9742 13.0766L9.36419 7.05655L1.63581 9.12344L3.24581 15.1434L10.9742 13.0766Z" fill="#810246" fill-opacity="0.15"/>
</svg>
