<svg width="41" height="56" viewBox="0 0 41 56" fill="none" xmlns="http://www.w3.org/2000/svg">
<path d="M7.9 8.16C9.67333 7.08666 11.7033 6.2 13.99 5.5C16.3233 4.8 18.6333 4.45 20.92 4.45C22.88 4.45 24.6767 4.73 26.31 5.29C27.9433 5.85 29.3433 6.64333 30.51 7.67C31.7233 8.65 32.6567 9.84 33.31 11.24C33.9633 12.64 34.29 14.18 34.29 15.86C34.29 18.3333 33.66 20.3633 32.4 21.95C31.14 23.49 29.5533 24.7967 27.64 25.87C30.44 26.8033 32.61 28.2033 34.15 30.07C35.7367 31.9367 36.53 34.3867 36.53 37.42C36.53 39.38 36.18 41.2467 35.48 43.02C34.78 44.7467 33.7067 46.2633 32.26 47.57C30.8133 48.8767 29.0167 49.9267 26.87 50.72C24.7233 51.4667 22.2267 51.84 19.38 51.84C13.5933 51.84 8.83333 50.2533 5.1 47.08L7.06 40.71C8.69333 42.0633 10.5133 43.1367 12.52 43.93C14.5267 44.7233 16.6733 45.12 18.96 45.12C21.9 45.12 24.1167 44.4433 25.61 43.09C27.15 41.69 27.92 39.66 27.92 37C27.92 34.62 27.22 32.7533 25.82 31.4C24.4667 30 22.18 29.3 18.96 29.3H17.07V23.21H19.24C21.2933 23.21 22.88 22.5567 24 21.25C25.12 19.9433 25.68 18.2167 25.68 16.07C25.68 14.1567 25.0967 12.8267 23.93 12.08C22.7633 11.2867 21.3633 10.89 19.73 10.89C18.8433 10.89 17.91 10.9833 16.93 11.17C15.9967 11.3567 15.0867 11.6367 14.2 12.01C13.3133 12.3367 12.4733 12.7333 11.68 13.2C10.9333 13.62 10.28 14.0867 9.72 14.6L7.9 8.16Z" fill="#810246" fill-opacity="0.15"/>
<path d="M7.9 8.16L5.82879 4.738L3.22212 6.31572L4.05076 9.24782L7.9 8.16ZM13.99 5.5L12.8406 1.66869L12.8299 1.67191L12.8191 1.6752L13.99 5.5ZM26.31 5.29L27.6073 1.50621L27.6073 1.50621L26.31 5.29ZM30.51 7.67L27.8675 10.6729L27.9309 10.7287L27.9967 10.7818L30.51 7.67ZM33.31 11.24L29.6853 12.9315L29.6853 12.9315L33.31 11.24ZM32.4 21.95L35.4958 24.483L35.5143 24.4604L35.5324 24.4375L32.4 21.95ZM27.64 25.87L25.683 22.3814L17.7969 26.8053L26.3751 29.6647L27.64 25.87ZM34.15 30.07L31.0645 32.6155L31.0832 32.6382L31.1022 32.6606L34.15 30.07ZM35.48 43.02L39.187 44.5228L39.1939 44.5058L39.2006 44.4887L35.48 43.02ZM32.26 47.57L29.5789 44.6016H29.5789L32.26 47.57ZM26.87 50.72L28.1841 54.498L28.2205 54.4853L28.2566 54.472L26.87 50.72ZM5.1 47.08L1.27688 45.9037L0.502138 48.4216L2.50941 50.1278L5.1 47.08ZM7.06 40.71L9.61207 37.6299L4.99879 33.8075L3.23688 39.5337L7.06 40.71ZM12.52 43.93L11.0494 47.6498L12.52 43.93ZM25.61 43.09L28.2961 46.054L28.3007 46.0498L25.61 43.09ZM25.82 31.4L22.944 34.1801L22.9912 34.2288L23.0399 34.276L25.82 31.4ZM17.07 29.3H13.07V33.3H17.07V29.3ZM17.07 23.21V19.21H13.07V23.21H17.07ZM23.93 12.08L21.6808 15.3877L21.7268 15.419L21.7738 15.4491L23.93 12.08ZM16.93 11.17L16.1816 7.24065L16.1635 7.24408L16.1455 7.24768L16.93 11.17ZM14.2 12.01L15.5828 15.7634L15.6683 15.7319L15.7522 15.6965L14.2 12.01ZM11.68 13.2L13.641 16.6863L13.6747 16.6673L13.7081 16.6477L11.68 13.2ZM9.72 14.6L5.87076 15.6878L7.63657 21.9361L12.4229 17.5486L9.72 14.6ZM9.97121 11.582C11.4229 10.7034 13.1426 9.94263 15.1609 9.3248L12.8191 1.6752C10.2641 2.45736 7.92378 3.46998 5.82879 4.738L9.97121 11.582ZM15.1394 9.3313C17.1242 8.73586 19.0473 8.45 20.92 8.45V0.449999C18.2194 0.449999 15.5225 0.864135 12.8406 1.66869L15.1394 9.3313ZM20.92 8.45C22.4974 8.45 23.8492 8.67485 25.0127 9.07378L27.6073 1.50621C25.5042 0.785146 23.2626 0.449999 20.92 0.449999V8.45ZM25.0127 9.07378C26.2059 9.48287 27.1352 10.0285 27.8675 10.6729L33.1525 4.66715C31.5514 3.25818 29.6808 2.21712 27.6073 1.50621L25.0127 9.07378ZM27.9967 10.7818C28.7409 11.3829 29.292 12.0888 29.6853 12.9315L36.9347 9.54846C36.0213 7.59119 34.7057 5.91708 33.0233 4.55823L27.9967 10.7818ZM29.6853 12.9315C30.0704 13.7569 30.29 14.7127 30.29 15.86H38.29C38.29 13.6473 37.8563 11.5231 36.9347 9.54846L29.6853 12.9315ZM30.29 15.86C30.29 17.6354 29.8501 18.7289 29.2676 19.4625L35.5324 24.4375C37.4699 21.9978 38.29 19.0313 38.29 15.86H30.29ZM29.3042 19.417C28.3917 20.5323 27.2051 21.5276 25.683 22.3814L29.597 29.3586C31.9016 28.0658 33.8883 26.4477 35.4958 24.483L29.3042 19.417ZM26.3751 29.6647C28.62 30.413 30.0975 31.4434 31.0645 32.6155L37.2355 27.5245C35.1225 24.9633 32.26 23.1936 28.9049 22.0753L26.3751 29.6647ZM31.1022 32.6606C31.938 33.6438 32.53 35.1019 32.53 37.42H40.53C40.53 33.6714 39.5353 30.2295 37.1978 27.4794L31.1022 32.6606ZM32.53 37.42C32.53 38.8916 32.2696 40.2588 31.7594 41.5513L39.2006 44.4887C40.0904 42.2345 40.53 39.8684 40.53 37.42H32.53ZM31.773 41.5172C31.3105 42.6581 30.5986 43.6805 29.5789 44.6016L34.9411 50.5384C36.8147 48.8462 38.2495 46.8352 39.187 44.5228L31.773 41.5172ZM29.5789 44.6016C28.5696 45.5132 27.2343 46.3209 25.4834 46.968L28.2566 54.472C30.799 53.5324 33.0571 52.2401 34.9411 50.5384L29.5789 44.6016ZM25.5559 46.942C23.9231 47.51 21.8875 47.84 19.38 47.84V55.84C22.5659 55.84 25.5236 55.4234 28.1841 54.498L25.5559 46.942ZM19.38 47.84C14.362 47.84 10.5742 46.4833 7.69059 44.0322L2.50941 50.1278C7.09248 54.0234 12.8246 55.84 19.38 55.84V47.84ZM8.92312 48.2563L10.8831 41.8863L3.23688 39.5337L1.27688 45.9037L8.92312 48.2563ZM4.50793 43.7901C6.47143 45.417 8.65764 46.7043 11.0494 47.6498L13.9906 40.2102C12.369 39.5691 10.9152 38.7097 9.61207 37.6299L4.50793 43.7901ZM11.0494 47.6498C13.5517 48.6391 16.2003 49.12 18.96 49.12V41.12C17.1464 41.12 15.5016 40.8075 13.9906 40.2102L11.0494 47.6498ZM18.96 49.12C22.4443 49.12 25.7913 48.3239 28.2961 46.0539L22.9239 40.1261C22.4421 40.5627 21.3557 41.12 18.96 41.12V49.12ZM28.3007 46.0498C30.8931 43.693 31.92 40.4533 31.92 37H23.92C23.92 38.8667 23.4069 39.687 22.9193 40.1302L28.3007 46.0498ZM31.92 37C31.92 33.7935 30.9475 30.7932 28.6001 28.524L23.0399 34.276C23.4925 34.7135 23.92 35.4465 23.92 37H31.92ZM28.696 28.6199C26.2219 26.0606 22.5884 25.3 18.96 25.3V33.3C21.7716 33.3 22.7114 33.9394 22.944 34.1801L28.696 28.6199ZM18.96 25.3H17.07V33.3H18.96V25.3ZM21.07 29.3V23.21H13.07V29.3H21.07ZM17.07 27.21H19.24V19.21H17.07V27.21ZM19.24 27.21C22.213 27.21 25.0093 26.2188 27.037 23.8532L20.963 18.6468C20.7507 18.8945 20.3736 19.21 19.24 19.21V27.21ZM27.037 23.8532C28.9207 21.6555 29.68 18.9274 29.68 16.07H21.68C21.68 17.5059 21.3193 18.2311 20.963 18.6468L27.037 23.8532ZM29.68 16.07C29.68 13.3659 28.813 10.4561 26.0862 8.71091L21.7738 15.4491C21.7334 15.4232 21.6827 15.3813 21.6369 15.327C21.5921 15.2739 21.5767 15.2382 21.5793 15.2441C21.5903 15.2692 21.68 15.4993 21.68 16.07H29.68ZM26.1792 8.77229C24.2492 7.45988 22.0355 6.89 19.73 6.89V14.89C20.6912 14.89 21.2774 15.1134 21.6808 15.3877L26.1792 8.77229ZM19.73 6.89C18.5633 6.89 17.3782 7.01272 16.1816 7.24065L17.6785 15.0994C18.4418 14.9539 19.1234 14.89 19.73 14.89V6.89ZM16.1455 7.24768C14.9462 7.48755 13.7791 7.8471 12.6478 8.32345L15.7522 15.6965C16.3942 15.4262 17.0471 15.2258 17.7145 15.0923L16.1455 7.24768ZM12.8172 8.25663C11.7127 8.66354 10.6562 9.16151 9.65192 9.75226L13.7081 16.6477C14.2905 16.3052 14.914 16.0098 15.5828 15.7634L12.8172 8.25663ZM9.71896 9.7137C8.73857 10.2652 7.82954 10.9066 7.0171 11.6514L12.4229 17.5486C12.7305 17.2667 13.1281 16.9748 13.641 16.6863L9.71896 9.7137ZM13.5692 13.5122L11.7492 7.07217L4.05076 9.24782L5.87076 15.6878L13.5692 13.5122Z" fill="#810246" fill-opacity="0.15"/>
</svg>
